<svg width="113" height="17" viewBox="0 0 113 17" fill="none" xmlns="http://www.w3.org/2000/svg">
    <path d="M11.8568 10.8828H2.26674C2.28335 12.4319 2.6985 13.7043 3.5122 14.7001C4.34251 15.696 5.53816 16.1939 7.09913 16.1939C7.76338 16.1939 8.45254 16.0911 9.1666 15.8856C9.89727 15.6643 10.5283 15.3798 11.0597 15.0321L11.2839 15.6485C10.8023 16.0279 10.1381 16.3519 9.29115 16.6206C8.46084 16.8735 7.5475 17 6.55113 17C5.23924 17 4.08512 16.7471 3.08875 16.2413C2.10898 15.7197 1.3451 15.0005 0.797096 14.0837C0.265699 13.1511 0 12.0841 0 10.8828C0 8.93863 0.556306 7.4291 1.66892 6.35425C2.79814 5.2794 4.34251 4.74198 6.30204 4.74198C7.5475 4.74198 8.58539 4.99489 9.41569 5.5007C10.246 6.00651 10.8604 6.68619 11.259 7.53975C11.6575 8.3775 11.8568 9.31009 11.8568 10.3375V10.8828ZM9.86406 10.053C9.86406 9.3417 9.74782 8.64621 9.51533 7.96653C9.28285 7.28684 8.9009 6.72571 8.36951 6.28312C7.85471 5.82473 7.18217 5.59554 6.35186 5.59554C5.1064 5.59554 4.14324 6.01441 3.46239 6.85216C2.79814 7.68991 2.40789 8.75686 2.29165 10.053H9.86406Z" fill="#0D192C" fill-opacity="0.4"/>
    <path d="M13.5302 16.4784C13.8457 16.3835 14.2027 16.2966 14.6013 16.2176C14.9998 16.1385 15.3154 16.0832 15.5478 16.0516V0.900976C14.8338 0.79033 14.1778 0.640167 13.58 0.450488V0.165969H21.003C23.1452 0.165969 24.6812 0.592748 25.6112 1.4463C26.5577 2.28405 27.031 3.50116 27.031 5.09763C27.031 6.61506 26.5743 7.84798 25.661 8.79637C24.7643 9.72896 23.4192 10.1953 21.6257 10.1953H17.8644V16.0516C18.5619 16.1464 19.2344 16.2966 19.8821 16.5021V16.7629H13.5302V16.4784ZM21.1275 9.36541C22.3564 9.36541 23.2697 8.97025 23.8675 8.17992C24.4654 7.38959 24.7643 6.35425 24.7643 5.07392C24.7643 3.80939 24.4654 2.82148 23.8675 2.11018C23.2697 1.39888 22.3564 1.04323 21.1275 1.04323H17.8644V9.36541H21.1275Z" fill="#0D192C" fill-opacity="0.4"/>
    <path d="M35.0362 17C32.9604 17 31.3413 16.4626 30.1789 15.3877C29.0331 14.3129 28.4602 12.8113 28.4602 10.8828C28.4602 8.95444 29.0331 7.45281 30.1789 6.37796C31.3413 5.28731 32.9604 4.74198 35.0362 4.74198C37.0954 4.74198 38.6979 5.28731 39.8437 6.37796C41.0061 7.45281 41.5873 8.95444 41.5873 10.8828C41.5873 12.8113 41.0061 14.3129 39.8437 15.3877C38.6979 16.4626 37.0954 17 35.0362 17ZM35.0362 16.1702C36.3481 16.1702 37.3943 15.7039 38.1748 14.7713C38.9553 13.8229 39.3455 12.5267 39.3455 10.8828C39.3455 9.23896 38.9553 7.95072 38.1748 7.01813C37.3943 6.06974 36.3481 5.59554 35.0362 5.59554C33.6911 5.59554 32.6283 6.06974 31.8478 7.01813C31.0839 7.95072 30.702 9.23896 30.702 10.8828C30.702 12.5267 31.0839 13.8229 31.8478 14.7713C32.6283 15.7039 33.6911 16.1702 35.0362 16.1702Z" fill="#0D192C" fill-opacity="0.4"/>
    <path d="M43.034 16.5021C43.3994 16.3914 44.0636 16.2413 45.0268 16.0516V0.995816C44.3293 0.869363 43.7481 0.727104 43.2831 0.569038V0.403068L47.2686 0V16.0516C47.9827 16.1622 48.6469 16.3124 49.2613 16.5021V16.7629H43.034V16.5021Z" fill="#0D192C" fill-opacity="0.4"/>
    <path d="M53.6572 3.69875C53.2421 3.69875 52.9017 3.5802 52.636 3.3431C52.3869 3.106 52.2623 2.79777 52.2623 2.41841C52.2623 2.03905 52.3869 1.73082 52.636 1.49372C52.9017 1.24082 53.2421 1.11436 53.6572 1.11436C54.0724 1.11436 54.4045 1.24082 54.6536 1.49372C54.9193 1.73082 55.0521 2.03905 55.0521 2.41841C55.0521 2.79777 54.9193 3.106 54.6536 3.3431C54.4045 3.5802 54.0724 3.69875 53.6572 3.69875ZM50.7179 16.5021C51.0335 16.3914 51.4154 16.2966 51.8638 16.2176C52.3121 16.1227 52.5944 16.0674 52.7107 16.0516V5.78522C52.0464 5.67457 51.4652 5.54021 50.967 5.38215V5.19247L54.9525 4.81311V16.0516C55.7164 16.1781 56.3806 16.3282 56.9453 16.5021V16.7629H50.7179V16.5021Z" fill="#0D192C" fill-opacity="0.4"/>
    <path d="M66.4789 16.6444C65.7316 16.8815 64.8847 17 63.9381 17C62.7591 17 61.8374 16.7155 61.1732 16.1464C60.509 15.5774 60.1768 14.7001 60.1768 13.5146V5.80893H58.0097V4.95537H60.1768V3.65132C60.8079 3.39842 61.1981 2.76616 61.3476 1.75453H62.4187V4.95537H66.1551V5.80893H62.4187V13.5146C62.4187 14.463 62.6096 15.1348 62.9916 15.53C63.3901 15.9251 63.9547 16.1227 64.6854 16.1227C65.167 16.1227 65.7067 16.0279 66.3045 15.8382L66.4789 16.6444Z" fill="#0D192C" fill-opacity="0.4"/>
    <path d="M70.7337 3.69875C70.3185 3.69875 69.9781 3.5802 69.7124 3.3431C69.4633 3.106 69.3388 2.79777 69.3388 2.41841C69.3388 2.03905 69.4633 1.73082 69.7124 1.49372C69.9781 1.24082 70.3185 1.11436 70.7337 1.11436C71.1488 1.11436 71.481 1.24082 71.7301 1.49372C71.9958 1.73082 72.1286 2.03905 72.1286 2.41841C72.1286 2.79777 71.9958 3.106 71.7301 3.3431C71.481 3.5802 71.1488 3.69875 70.7337 3.69875ZM67.7944 16.5021C68.1099 16.3914 68.4919 16.2966 68.9402 16.2176C69.3886 16.1227 69.6709 16.0674 69.7871 16.0516V5.78522C69.1229 5.67457 68.5417 5.54021 68.0435 5.38215V5.19247L72.029 4.81311V16.0516C72.7929 16.1781 73.4571 16.3282 74.0217 16.5021V16.7629H67.7944V16.5021Z" fill="#0D192C" fill-opacity="0.4"/>
    <path d="M87.9892 16.0516C88.6036 16.1306 89.2596 16.2808 89.957 16.5021V16.7629H86.395L81.3135 11.0014L79.6944 12.5425V16.0516C80.4085 16.1622 81.0727 16.3124 81.6871 16.5021V16.7629H75.4598V16.5021C76.1905 16.265 76.8547 16.1148 77.4526 16.0516V0.995816C76.7551 0.869363 76.1739 0.727104 75.7089 0.569038V0.403068L79.6944 0V11.2859L85.0748 6.09344C85.1578 6.04603 85.1993 5.9986 85.1993 5.95118C85.2326 5.88796 85.2492 5.82473 85.2492 5.76151C85.0831 5.69828 84.8672 5.63505 84.6015 5.57183C84.4687 5.52441 84.286 5.46908 84.0535 5.40586C83.821 5.32682 83.6467 5.2636 83.5304 5.21618V4.95537H88.8112V5.21618C88.6285 5.31102 88.2051 5.44537 87.5408 5.61925C87.026 5.7457 86.7271 5.83264 86.6441 5.88005L82.559 9.79219L87.9892 16.0516Z" fill="#0D192C" fill-opacity="0.4"/>
    <path d="M101.91 10.8828H92.3195C92.3361 12.4319 92.7513 13.7043 93.5649 14.7001C94.3953 15.696 95.5909 16.1939 97.1519 16.1939C97.8161 16.1939 98.5053 16.0911 99.2193 15.8856C99.95 15.6643 100.581 15.3798 101.112 15.0321L101.337 15.6485C100.855 16.0279 100.191 16.3519 99.3439 16.6206C98.5136 16.8735 97.6003 17 96.6039 17C95.292 17 94.1379 16.7471 93.1415 16.2413C92.1617 15.7197 91.3979 15.0005 90.8499 14.0837C90.3185 13.1511 90.0527 12.0841 90.0527 10.8828C90.0527 8.93863 90.6091 7.4291 91.7217 6.35425C92.8509 5.2794 94.3953 4.74198 96.3548 4.74198C97.6003 4.74198 98.6381 4.99489 99.4684 5.5007C100.299 6.00651 100.913 6.68619 101.312 7.53975C101.71 8.3775 101.91 9.31009 101.91 10.3375V10.8828ZM99.9168 10.053C99.9168 9.3417 99.8006 8.64621 99.5681 7.96653C99.3356 7.28684 98.9537 6.72571 98.4223 6.28312C97.9075 5.82473 97.2349 5.59554 96.4046 5.59554C95.1591 5.59554 94.196 6.01441 93.5151 6.85216C92.8509 7.68991 92.4606 8.75686 92.3444 10.053H99.9168Z" fill="#0D192C" fill-opacity="0.4"/>
    <path d="M103.184 16.5021C103.749 16.2966 104.413 16.1464 105.177 16.0516V5.76151C104.446 5.63505 103.874 5.49279 103.458 5.33473V5.16876L107.17 4.76569L107.369 6.80474H107.469C107.734 6.2357 108.15 5.7536 108.714 5.35844C109.279 4.94747 109.893 4.74198 110.558 4.74198C111.371 4.74198 112.06 4.91585 112.625 5.2636L112.202 6.37796C111.786 6.07764 111.321 5.92747 110.807 5.92747C110.126 5.92747 109.495 6.14877 108.914 6.59135C108.332 7.01813 107.834 7.56346 107.419 8.22734V16.0516C108.15 16.1622 108.814 16.3124 109.412 16.5021V16.7629H103.184V16.5021Z" fill="#0D192C" fill-opacity="0.4"/>
</svg>
