<svg width="24" height="24" viewBox="0 0 24 24" fill="none" xmlns="http://www.w3.org/2000/svg">
<path fill-rule="evenodd" clip-rule="evenodd" d="M16.5182 5.4318C15.9425 4.85607 15.009 4.85607 14.4333 5.4318L6.2826 13.5825L6.18142 13.6836L6.15037 13.8233L5.16752 18.2462L5 19L5.75385 18.8325L10.1767 17.8496L10.3164 17.8186L10.4176 17.7174L18.5682 9.56675C19.144 8.99101 19.144 8.05755 18.5682 7.48181L16.5182 5.4318ZM15.1283 6.12678C15.3202 5.93487 15.6313 5.93487 15.8232 6.12678L17.8732 8.17679C18.0652 8.36871 18.0652 8.67986 17.8732 8.87177L17.1958 9.54925L14.4508 6.80426L15.1283 6.12678ZM13.7558 7.49924L7.07877 14.1762L6.29449 17.7055L9.82377 16.9212L16.5008 10.2442L13.7558 7.49924Z" fill="#5D779D"/>
</svg>
