<svg width="24" height="24" viewBox="0 0 24 24" fill="none" xmlns="http://www.w3.org/2000/svg">
<g opacity="0.6">
<path fill-rule="evenodd" clip-rule="evenodd" d="M13.17 17H4.837L4 16.125C4.51641 15.2569 5.24777 14.5366 6.12355 14.0334C6.99932 13.5301 7.98998 13.261 9 13.252C10.01 13.261 11.0007 13.5301 11.8765 14.0334C12.7522 14.5366 13.4836 15.2569 14 16.125L13.17 17ZM9 12C8.33696 12 7.70107 11.7366 7.23223 11.2678C6.76339 10.7989 6.5 10.163 6.5 9.5C6.5 8.83696 6.76339 8.20108 7.23223 7.73224C7.70107 7.2634 8.33696 7 9 7C9.66304 7 10.2989 7.2634 10.7678 7.73224C11.2366 8.20108 11.5 8.83696 11.5 9.5C11.5 10.163 11.2366 10.7989 10.7678 11.2678C10.2989 11.7366 9.66304 12 9 12Z" fill="#5D779D"/>
<path opacity="0.4" fill-rule="evenodd" clip-rule="evenodd" d="M14.8594 15.6137C14.3922 14.8284 13.7746 14.1464 13.0449 13.6052C13.6695 13.3782 14.3305 13.258 15 13.252C16.01 13.261 17.0007 13.5301 17.8765 14.0334C18.7522 14.5366 19.4836 15.2569 20 16.125L19.17 17H14.5483L14.7255 16.8132L15.2463 16.2641L14.8594 15.6137ZM13.2322 11.2678C12.7634 10.7989 12.5 10.163 12.5 9.5C12.5 8.83696 12.7634 8.20108 13.2322 7.73224C13.7011 7.2634 14.337 7 15 7C15.663 7 16.2989 7.2634 16.7678 7.73224C17.2366 8.20108 17.5 8.83696 17.5 9.5C17.5 10.163 17.2366 10.7989 16.7678 11.2678C16.2989 11.7366 15.663 12 15 12C14.337 12 13.7011 11.7366 13.2322 11.2678Z" fill="#5D779D"/>
</g>
</svg>
