<svg width="24" height="24" viewBox="0 0 24 24" fill="none" xmlns="http://www.w3.org/2000/svg">
<path fill-rule="evenodd" clip-rule="evenodd" d="M7 11C7.19778 11 7.39112 11.0586 7.55557 11.1685C7.72002 11.2784 7.84819 11.4346 7.92388 11.6173C7.99957 11.8 8.01937 12.0011 7.98079 12.1951C7.9422 12.3891 7.84696 12.5673 7.70711 12.7071C7.56725 12.847 7.38907 12.9422 7.19509 12.9808C7.00111 13.0194 6.80004 12.9996 6.61732 12.9239C6.43459 12.8482 6.27841 12.72 6.16853 12.5556C6.05865 12.3911 6 12.1978 6 12C6 11.7348 6.10536 11.4804 6.29289 11.2929C6.48043 11.1054 6.73478 11 7 11ZM12 11C12.1978 11 12.3911 11.0586 12.5556 11.1685C12.72 11.2784 12.8482 11.4346 12.9239 11.6173C12.9996 11.8 13.0194 12.0011 12.9808 12.1951C12.9422 12.3891 12.847 12.5673 12.7071 12.7071C12.5673 12.847 12.3891 12.9422 12.1951 12.9808C12.0011 13.0194 11.8 12.9996 11.6173 12.9239C11.4346 12.8482 11.2784 12.72 11.1685 12.5556C11.0586 12.3911 11 12.1978 11 12C11 11.7348 11.1054 11.4804 11.2929 11.2929C11.4804 11.1054 11.7348 11 12 11ZM17 11C17.1978 11 17.3911 11.0586 17.5556 11.1685C17.72 11.2784 17.8482 11.4346 17.9239 11.6173C17.9996 11.8 18.0194 12.0011 17.9808 12.1951C17.9422 12.3891 17.847 12.5673 17.7071 12.7071C17.5673 12.847 17.3891 12.9422 17.1951 12.9808C17.0011 13.0194 16.8 12.9996 16.6173 12.9239C16.4346 12.8482 16.2784 12.72 16.1685 12.5556C16.0586 12.3911 16 12.1978 16 12C16 11.7348 16.1054 11.4804 16.2929 11.2929C16.4804 11.1054 16.7348 11 17 11Z" fill="#5D779D"/>
</svg>
