<svg width="24" height="24" viewBox="0 0 24 24" fill="none" xmlns="http://www.w3.org/2000/svg">
<g opacity="0.6">
<g opacity="0.8">
<mask id="path-3-inside-1" fill="white">
<path fill-rule="evenodd" clip-rule="evenodd" d="M12 17C16.4183 17 20 14.3137 20 11C20 7.68629 16.4183 5 12 5C7.58172 5 4 7.68629 4 11C4 12.6516 4.88975 14.1473 6.32937 15.2323L7.07165 19.1365L11.1299 16.9649C11.4157 16.9881 11.706 17 12 17Z"/>
</mask>
<path d="M6.32937 15.2323L7.31177 15.0455L7.23964 14.6661L6.93123 14.4337L6.32937 15.2323ZM7.07165 19.1365L6.08925 19.3232L6.34345 20.6603L7.54345 20.0182L7.07165 19.1365ZM11.1299 16.9649L11.2107 15.9682L10.9175 15.9444L10.6581 16.0832L11.1299 16.9649ZM19 11C19 12.2715 18.3151 13.4989 17.0569 14.4426C15.7983 15.3866 14.0137 16 12 16V18C14.4046 18 16.62 17.2703 18.2569 16.0426C19.894 14.8148 21 13.0422 21 11H19ZM12 6C14.0137 6 15.7983 6.61341 17.0569 7.55736C18.3151 8.50108 19 9.72847 19 11H21C21 8.95782 19.894 7.18521 18.2569 5.95736C16.62 4.72973 14.4046 4 12 4V6ZM5 11C5 9.72847 5.68486 8.50108 6.94315 7.55736C8.20174 6.61341 9.98631 6 12 6V4C9.59541 4 7.37998 4.72973 5.74315 5.95736C4.10601 7.18521 3 8.95782 3 11H5ZM6.93123 14.4337C5.6805 13.4911 5 12.2676 5 11H3C3 13.0356 4.099 14.8036 5.72751 16.0309L6.93123 14.4337ZM8.05405 18.9497L7.31177 15.0455L5.34697 15.4191L6.08925 19.3232L8.05405 18.9497ZM10.6581 16.0832L6.59985 18.2547L7.54345 20.0182L11.6017 17.8466L10.6581 16.0832ZM12 16C11.733 16 11.4696 15.9892 11.2107 15.9682L11.049 17.9616C11.3617 17.987 11.679 18 12 18V16Z" fill="#225FBC" mask="url(#path-3-inside-1)"/>
</g>
</g>
</svg>
