<svg width="24" height="24" viewBox="0 0 24 24" fill="none" xmlns="http://www.w3.org/2000/svg">
<g opacity="0.8">
<path fill-rule="evenodd" clip-rule="evenodd" d="M14.8 10.5C14.8 12.8748 12.8748 14.8 10.5 14.8C8.12518 14.8 6.2 12.8748 6.2 10.5C6.2 8.12518 8.12518 6.2 10.5 6.2C12.8748 6.2 14.8 8.12518 14.8 10.5ZM13.8227 14.8833C12.8996 15.5841 11.7484 16 10.5 16C7.46243 16 5 13.5376 5 10.5C5 7.46243 7.46243 5 10.5 5C13.5376 5 16 7.46243 16 10.5C16 11.8568 15.5087 13.0988 14.6944 14.0579L17.9598 17.3233C18.1941 17.5576 18.1941 17.9375 17.9598 18.1718C17.7255 18.4061 17.3456 18.4061 17.1113 18.1718L13.8227 14.8833Z" fill="#5D779D" fill-opacity="0.8"/>
</g>
</svg>
