<svg width="133" height="21" viewBox="0 0 133 21" fill="none" xmlns="http://www.w3.org/2000/svg">
    <path d="M13.9629 12.8159H2.66937C2.68893 14.6401 3.17782 16.1386 4.13606 17.3112C5.11385 18.4839 6.52187 19.0703 8.36012 19.0703C9.14235 19.0703 9.95392 18.9493 10.7948 18.7073C11.6553 18.4467 12.3984 18.1117 13.0242 17.7021L13.2882 18.4281C12.7211 18.8748 11.9388 19.2564 10.9415 19.5729C9.96369 19.8707 8.88812 20.0196 7.71477 20.0196C6.16986 20.0196 4.81073 19.7218 3.63738 19.1261C2.48359 18.5119 1.58402 17.6649 0.93868 16.5853C0.312893 15.4871 0 14.2306 0 12.8159C0 10.5264 0.65512 8.74869 1.96536 7.48293C3.29516 6.21716 5.11385 5.58427 7.42144 5.58427C8.88812 5.58427 10.1104 5.8821 11.0882 6.47776C12.0659 7.07341 12.7895 7.87383 13.2589 8.87899C13.7282 9.86555 13.9629 10.9638 13.9629 12.1737V12.8159ZM11.6162 11.8387C11.6162 11.001 11.4793 10.182 11.2055 9.38158C10.9317 8.58117 10.4819 7.92036 9.85614 7.39916C9.24991 6.85935 8.4579 6.58944 7.4801 6.58944C6.01342 6.58944 4.87918 7.08272 4.07739 8.06928C3.29516 9.05583 2.8356 10.3123 2.6987 11.8387H11.6162Z" fill="#445C81"/>
    <path d="M15.9335 19.4054C16.3051 19.2937 16.7255 19.1913 17.1948 19.0982C17.6642 19.0051 18.0357 18.94 18.3095 18.9028V1.06101C17.4686 0.930712 16.6962 0.753876 15.9922 0.530506V0.195449H24.7336C27.2563 0.195449 29.0652 0.698034 30.1604 1.7032C31.275 2.68976 31.8324 4.12305 31.8324 6.00309C31.8324 7.79006 31.2946 9.24197 30.219 10.3588C29.163 11.4571 27.579 12.0062 25.467 12.0062H21.0376V18.9028C21.8589 19.0145 22.6509 19.1913 23.4136 19.4333V19.7404H15.9335V19.4054ZM24.8803 11.0289C26.3274 11.0289 27.403 10.5636 28.107 9.63287C28.811 8.70216 29.163 7.48293 29.163 5.97517C29.163 4.48603 28.811 3.32264 28.107 2.485C27.403 1.64736 26.3274 1.22854 24.8803 1.22854H21.0376V11.0289H24.8803Z" fill="#445C81"/>
    <path d="M41.2595 20.0196C38.815 20.0196 36.9083 19.3867 35.5394 18.121C34.1901 16.8552 33.5154 15.0868 33.5154 12.8159C33.5154 10.545 34.1901 8.77662 35.5394 7.51085C36.9083 6.22647 38.815 5.58427 41.2595 5.58427C43.6844 5.58427 45.5716 6.22647 46.9209 7.51085C48.2898 8.77662 48.9743 10.545 48.9743 12.8159C48.9743 15.0868 48.2898 16.8552 46.9209 18.121C45.5716 19.3867 43.6844 20.0196 41.2595 20.0196ZM41.2595 19.0424C42.8044 19.0424 44.0364 18.4933 44.9556 17.395C45.8747 16.2782 46.3343 14.7518 46.3343 12.8159C46.3343 10.88 45.8747 9.36297 44.9556 8.26473C44.0364 7.14787 42.8044 6.58944 41.2595 6.58944C39.6755 6.58944 38.4239 7.14787 37.5048 8.26473C36.6052 9.36297 36.1554 10.88 36.1554 12.8159C36.1554 14.7518 36.6052 16.2782 37.5048 17.395C38.4239 18.4933 39.6755 19.0424 41.2595 19.0424Z" fill="#445C81"/>
    <path d="M50.6779 19.4333C51.1082 19.303 51.8904 19.1261 53.0246 18.9028V1.1727C52.2033 1.02378 51.5188 0.856256 50.9713 0.670113V0.474663L55.6647 0V18.9028C56.5056 19.0331 57.2878 19.2099 58.0114 19.4333V19.7404H50.6779V19.4333Z" fill="#445C81"/>
    <path d="M63.1881 4.35573C62.6992 4.35573 62.2983 4.21613 61.9854 3.93691C61.6921 3.6577 61.5454 3.29472 61.5454 2.84798C61.5454 2.40124 61.6921 2.03826 61.9854 1.75905C62.2983 1.46122 62.6992 1.3123 63.1881 1.3123C63.677 1.3123 64.0681 1.46122 64.3614 1.75905C64.6743 2.03826 64.8308 2.40124 64.8308 2.84798C64.8308 3.29472 64.6743 3.6577 64.3614 3.93691C64.0681 4.21613 63.677 4.35573 63.1881 4.35573ZM59.7267 19.4333C60.0983 19.303 60.548 19.1913 61.0761 19.0982C61.6041 18.9865 61.9365 18.9214 62.0734 18.9028V6.81281C61.2912 6.68251 60.6067 6.52429 60.02 6.33815V6.11478L64.7134 5.66804V18.9028C65.613 19.0517 66.3952 19.2285 67.0601 19.4333V19.7404H59.7267V19.4333Z" fill="#445C81"/>
    <path d="M78.2872 19.6008C77.4072 19.88 76.4098 20.0196 75.2951 20.0196C73.9067 20.0196 72.8213 19.6846 72.0391 19.0145C71.2569 18.3443 70.8657 17.3112 70.8657 15.9152V6.84074H68.3137V5.83557H70.8657V4.29989C71.6089 4.00206 72.0684 3.25749 72.2444 2.06618H73.5058V5.83557H77.9058V6.84074H73.5058V15.9152C73.5058 17.032 73.7307 17.8231 74.1804 18.2885C74.6498 18.7539 75.3147 18.9865 76.1751 18.9865C76.7423 18.9865 77.3778 18.8748 78.0818 18.6515L78.2872 19.6008Z" fill="#445C81"/>
    <path d="M83.2977 4.35573C82.8089 4.35573 82.408 4.21613 82.0951 3.93691C81.8017 3.6577 81.6551 3.29472 81.6551 2.84798C81.6551 2.40124 81.8017 2.03826 82.0951 1.75905C82.408 1.46122 82.8089 1.3123 83.2977 1.3123C83.7866 1.3123 84.1778 1.46122 84.4711 1.75905C84.784 2.03826 84.9404 2.40124 84.9404 2.84798C84.9404 3.29472 84.784 3.6577 84.4711 3.93691C84.1778 4.21613 83.7866 4.35573 83.2977 4.35573ZM79.8364 19.4333C80.2079 19.303 80.6577 19.1913 81.1857 19.0982C81.7137 18.9865 82.0462 18.9214 82.1831 18.9028V6.81281C81.4008 6.68251 80.7164 6.52429 80.1297 6.33815V6.11478L84.8231 5.66804V18.9028C85.7227 19.0517 86.5049 19.2285 87.1698 19.4333V19.7404H79.8364V19.4333Z" fill="#445C81"/>
    <path d="M103.618 18.9028C104.342 18.9958 105.114 19.1727 105.936 19.4333V19.7404H101.741L95.7568 12.9555L93.8501 14.7704V18.9028C94.691 19.0331 95.4732 19.2099 96.1968 19.4333V19.7404H88.8634V19.4333C89.7238 19.1541 90.5061 18.9772 91.2101 18.9028V1.1727C90.3887 1.02378 89.7043 0.856256 89.1567 0.670113V0.474663L93.8501 0V13.2906L100.186 7.17579C100.284 7.11995 100.333 7.06411 100.333 7.00826C100.372 6.93381 100.392 6.85935 100.392 6.78489C100.196 6.71044 99.9417 6.63598 99.6289 6.56152C99.4724 6.50568 99.2573 6.44053 98.9835 6.36607C98.7097 6.273 98.5044 6.19854 98.3675 6.1427V5.83557H104.586V6.1427C104.371 6.25439 103.872 6.41261 103.09 6.61736C102.484 6.76628 102.132 6.86866 102.034 6.9245L97.2235 11.5315L103.618 18.9028Z" fill="#445C81"/>
    <path d="M120.011 12.8159H108.718C108.737 14.6401 109.226 16.1386 110.184 17.3112C111.162 18.4839 112.57 19.0703 114.408 19.0703C115.191 19.0703 116.002 18.9493 116.843 18.7073C117.704 18.4467 118.447 18.1117 119.073 17.7021L119.337 18.4281C118.769 18.8748 117.987 19.2564 116.99 19.5729C116.012 19.8707 114.936 20.0196 113.763 20.0196C112.218 20.0196 110.859 19.7218 109.686 19.1261C108.532 18.5119 107.632 17.6649 106.987 16.5853C106.361 15.4871 106.048 14.2306 106.048 12.8159C106.048 10.5264 106.703 8.74869 108.014 7.48293C109.344 6.21716 111.162 5.58427 113.47 5.58427C114.936 5.58427 116.159 5.8821 117.137 6.47776C118.114 7.07341 118.838 7.87383 119.307 8.87899C119.777 9.86555 120.011 10.9638 120.011 12.1737V12.8159ZM117.665 11.8387C117.665 11.001 117.528 10.182 117.254 9.38158C116.98 8.58117 116.53 7.92036 115.904 7.39916C115.298 6.85935 114.506 6.58944 113.528 6.58944C112.062 6.58944 110.928 7.08272 110.126 8.06928C109.344 9.05583 108.884 10.3123 108.747 11.8387H117.665Z" fill="#445C81"/>
    <path d="M121.512 19.4333C122.177 19.1913 122.96 19.0145 123.859 18.9028V6.78489C122.999 6.63598 122.324 6.46845 121.835 6.28231V6.08686L126.206 5.6122L126.441 8.01343H126.558C126.871 7.34332 127.36 6.77558 128.025 6.31023C128.689 5.82626 129.413 5.58427 130.195 5.58427C131.154 5.58427 131.965 5.78903 132.63 6.19854L132.131 7.51085C131.642 7.15718 131.095 6.98034 130.489 6.98034C129.687 6.98034 128.944 7.24094 128.259 7.76214C127.575 8.26473 126.988 8.90692 126.499 9.68871V18.9028C127.36 19.0331 128.142 19.2099 128.846 19.4333V19.7404H121.512V19.4333Z" fill="#445C81"/>
</svg>
