<svg width="24" height="24" viewBox="0 0 24 24" fill="none" xmlns="http://www.w3.org/2000/svg">
<path fill-rule="evenodd" clip-rule="evenodd" d="M6.87041 15.2285C5.69984 14.2637 4.78311 13.1544 4.2006 12.3252C4.78311 11.496 5.69984 10.3867 6.87041 9.42186C8.31793 8.22875 10.0678 7.3252 12 7.3252C13.9322 7.3252 15.6821 8.22875 17.1296 9.42186C18.3002 10.3867 19.2169 11.496 19.7994 12.3252C19.2169 13.1544 18.3002 14.2637 17.1296 15.2285C15.6821 16.4216 13.9322 17.3252 12 17.3252C10.0678 17.3252 8.31793 16.4216 6.87041 15.2285ZM12 6.3252C16.5 6.3252 19.875 10.5252 21 12.3252C19.875 14.1252 16.5 18.3252 12 18.3252C7.5 18.3252 4.125 14.1252 3 12.3252C4.125 10.5252 7.5 6.3252 12 6.3252ZM14 12.3252C14 13.4298 13.1046 14.3252 12 14.3252C10.8954 14.3252 10 13.4298 10 12.3252C10 11.2206 10.8954 10.3252 12 10.3252C13.1046 10.3252 14 11.2206 14 12.3252ZM15 12.3252C15 13.982 13.6569 15.3252 12 15.3252C10.3431 15.3252 9 13.982 9 12.3252C9 10.6683 10.3431 9.3252 12 9.3252C13.6569 9.3252 15 10.6683 15 12.3252Z" fill="#5D779D"/>
</svg>
