<svg width="24" height="24" viewBox="0 0 24 24" fill="none" xmlns="http://www.w3.org/2000/svg">
<path fill-rule="evenodd" clip-rule="evenodd" d="M19.0437 13C18.7883 16.3908 15.9561 19.0625 12.5 19.0625C9.04385 19.0625 6.21172 16.3908 5.95626 13L19.0437 13ZM19.0437 12L5.95626 12C6.21172 8.60922 9.04385 5.9375 12.5 5.9375C15.9561 5.9375 18.7883 8.60922 19.0437 12ZM20 12.5C20 16.6421 16.6421 20 12.5 20C8.35786 20 5 16.6421 5 12.5C5 8.35786 8.35786 5 12.5 5C16.6421 5 20 8.35786 20 12.5Z" fill="#B3B3B3"/>
<path opacity="0.4" fill-rule="evenodd" clip-rule="evenodd" d="M14.0687 17.3804C14.6275 16.1831 15 14.4586 15 12.5C15 10.5414 14.6275 8.81693 14.0687 7.61958C13.472 6.34104 12.8472 6 12.5 6C12.1528 6 11.528 6.34104 10.9313 7.61958C10.3725 8.81693 10 10.5414 10 12.5C10 14.4586 10.3725 16.1831 10.9313 17.3804C11.528 18.659 12.1528 19 12.5 19C12.8472 19 13.472 18.659 14.0687 17.3804ZM12.5 20C14.433 20 16 16.6421 16 12.5C16 8.35786 14.433 5 12.5 5C10.567 5 9 8.35786 9 12.5C9 16.6421 10.567 20 12.5 20Z" fill="#B3B3B3"/>
</svg>

