<svg width="24" height="24" viewBox="0 0 24 24" fill="none" xmlns="http://www.w3.org/2000/svg">
<g opacity="0.6">
<path fill-rule="evenodd" clip-rule="evenodd" d="M20 11.5C20 11.668 19.9945 11.8347 19.9836 12H12V4.0164C12.1653 4.00552 12.332 4 12.5 4C16.6421 4 20 7.35786 20 11.5ZM4 12.5294C4 9.02098 6.39957 6.07303 9.64706 5.23718V6.79155C7.24018 7.57227 5.5 9.8329 5.5 12.5C5.5 15.8137 8.18629 18.5 11.5 18.5C14.1671 18.5 16.4277 16.7598 17.2084 14.3529H18.8365C18.0213 17.6302 15.059 20.0588 11.5294 20.0588C7.37103 20.0588 4 16.6878 4 12.5294Z" fill="#5D779D"/>
</g>
</svg>
